/* XPM */
static char * primcom64_xpm[] = {
"48 33 600 2",
"  	c None",
". 	c #9E0D08",
"+ 	c #A90F08",
"@ 	c #A90D0B",
"# 	c #A90D08",
"$ 	c #A80D08",
"% 	c #AB0D09",
"& 	c #AA0D0A",
"* 	c #AC0C09",
"= 	c #A90D0A",
"- 	c #AD0C08",
"; 	c #A60D0A",
"> 	c #A80E0D",
", 	c #AD0D08",
"' 	c #A70E0D",
") 	c #AB0C08",
"! 	c #A80F07",
"~ 	c #A51308",
"{ 	c #93100F",
"] 	c #A81008",
"^ 	c #DE0E03",
"/ 	c #E50C03",
"( 	c #E80D04",
"_ 	c #E30F02",
": 	c #E90F03",
"< 	c #E60D03",
"[ 	c #E41002",
"} 	c #E30E03",
"| 	c #E31003",
"1 	c #DE0D03",
"2 	c #DF1102",
"3 	c #DE0D04",
"4 	c #DF0D03",
"5 	c #DE1003",
"6 	c #DF0E03",
"7 	c #DE1103",
"8 	c #E41104",
"9 	c #E10D03",
"0 	c #E71102",
"a 	c #E91003",
"b 	c #E80F02",
"c 	c #E40F01",
"d 	c #E31001",
"e 	c #EA0B05",
"f 	c #EA0C04",
"g 	c #EE0C04",
"h 	c #E20E0A",
"i 	c #960909",
"j 	c #830E09",
"k 	c #E90F07",
"l 	c #BE0A05",
"m 	c #77340C",
"n 	c #744307",
"o 	c #813D05",
"p 	c #853B0B",
"q 	c #843B08",
"r 	c #843C05",
"s 	c #7E340A",
"t 	c #851B07",
"u 	c #DD0C05",
"v 	c #E30D04",
"w 	c #E00D03",
"x 	c #E30E04",
"y 	c #E40E04",
"z 	c #D90D05",
"A 	c #A51007",
"B 	c #6D130A",
"C 	c #7E380A",
"D 	c #853B0D",
"E 	c #843B05",
"F 	c #843D08",
"G 	c #7E290D",
"H 	c #CD0B06",
"I 	c #EA1009",
"J 	c #780D09",
"K 	c #9F0F0C",
"L 	c #E90E09",
"M 	c #B30507",
"N 	c #866318",
"O 	c #DDEA0A",
"P 	c #EBF607",
"Q 	c #E5F504",
"R 	c #E7F602",
"S 	c #E7F601",
"T 	c #E2F007",
"U 	c #7A4F0C",
"V 	c #E10806",
"W 	c #E70D06",
"X 	c #E60E03",
"Y 	c #E21103",
"Z 	c #E20F03",
"` 	c #E50F03",
" .	c #E70F03",
"..	c #E70E05",
"+.	c #E70D04",
"@.	c #E50D03",
"#.	c #E30F03",
"$.	c #DB0C04",
"%.	c #94100D",
"&.	c #8F930E",
"*.	c #EFFE05",
"=.	c #E7F604",
"-.	c #E5F602",
";.	c #E6F705",
">.	c #D5E40D",
",.	c #855112",
"'.	c #BA0A06",
").	c #ED0F05",
"!.	c #8C110C",
"~.	c #9A0D09",
"{.	c #E40D04",
"].	c #C50F07",
"^.	c #7D6010",
"/.	c #EEF206",
"(.	c #FCFF0A",
"_.	c #FBFE02",
":.	c #FAFE02",
"<.	c #F2F802",
"[.	c #7F5709",
"}.	c #A40605",
"|.	c #A9040C",
"1.	c #B30606",
"2.	c #E40D08",
"3.	c #C90C0B",
"4.	c #A70305",
"5.	c #B00406",
"6.	c #A90604",
"7.	c #CB090E",
"8.	c #DE0E04",
"9.	c #E70F04",
"0.	c #690407",
"a.	c #E2E713",
"b.	c #FDFF01",
"c.	c #FAFF02",
"d.	c #FAF801",
"e.	c #FBFF02",
"f.	c #E6EA0C",
"g.	c #6E3D0B",
"h.	c #D10F0A",
"i.	c #DF1104",
"j.	c #7D0B08",
"k.	c #860F0E",
"l.	c #EA0D06",
"m.	c #BC090C",
"n.	c #72510A",
"o.	c #E8F60A",
"p.	c #F7FE04",
"q.	c #FAFE01",
"r.	c #F9FE04",
"s.	c #CAD709",
"t.	c #A3AE06",
"u.	c #A0B607",
"v.	c #75680A",
"w.	c #D80C06",
"x.	c #E11103",
"y.	c #EA0E04",
"z.	c #840004",
"A.	c #899E08",
"B.	c #A2B804",
"C.	c #A1B604",
"D.	c #8F9F15",
"E.	c #8D3310",
"F.	c #DB0F05",
"G.	c #D70903",
"H.	c #565B09",
"I.	c #FFFF08",
"J.	c #F9FE02",
"K.	c #F8FD03",
"L.	c #FDFF0B",
"M.	c #DDE511",
"N.	c #643D0F",
"O.	c #C90B09",
"P.	c #ED0F09",
"Q.	c #7D100B",
"R.	c #9D100C",
"S.	c #E51007",
"T.	c #B20808",
"U.	c #816A09",
"V.	c #EFF511",
"W.	c #F8FE03",
"X.	c #FDFF05",
"Y.	c #FFFF07",
"Z.	c #FFFF0A",
"`.	c #C0C207",
" +	c #B60C05",
".+	c #E20D06",
"++	c #EA0E05",
"@+	c #7F0005",
"#+	c #DAE703",
"$+	c #FFFF02",
"%+	c #FFFF06",
"&+	c #B3B20D",
"*+	c #B5150C",
"=+	c #E80C04",
"-+	c #E00E05",
";+	c #F20B07",
">+	c #793A07",
",+	c #ECF805",
"'+	c #E3E910",
")+	c #76480E",
"!+	c #C5070D",
"~+	c #E60D09",
"{+	c #820E08",
"]+	c #87130C",
"^+	c #D61206",
"/+	c #C40D07",
"(+	c #8C6716",
"_+	c #EEF407",
":+	c #F8FE04",
"<+	c #FAFE03",
"[+	c #FBFF03",
"}+	c #BDBF09",
"|+	c #A80C04",
"1+	c #E51203",
"2+	c #ED0F04",
"3+	c #7D0005",
"4+	c #D5DB05",
"5+	c #FDFF02",
"6+	c #F9F801",
"7+	c #FCFF09",
"8+	c #C9DC05",
"9+	c #AB2307",
"0+	c #E60D04",
"a+	c #E71003",
"b+	c #A1260C",
"c+	c #D3E601",
"d+	c #F8FA07",
"e+	c #FBFE05",
"f+	c #DFE60C",
"g+	c #78430D",
"h+	c #CC1107",
"i+	c #DE0E0A",
"j+	c #7B0D0A",
"k+	c #A40D07",
"l+	c #E00D04",
"m+	c #B01206",
"n+	c #968E0F",
"o+	c #F4FC06",
"p+	c #F6FD04",
"q+	c #BCBF08",
"r+	c #E60E08",
"s+	c #7E0006",
"t+	c #FAFF01",
"u+	c #F8F90B",
"v+	c #C8DA04",
"w+	c #A62307",
"x+	c #E00D09",
"y+	c #A02505",
"z+	c #D9E905",
"A+	c #FAFF03",
"B+	c #EFF406",
"C+	c #7C6817",
"D+	c #BE1006",
"E+	c #E40D09",
"F+	c #A40E0D",
"G+	c #BB120B",
"H+	c #E80E05",
"I+	c #9A0A0B",
"J+	c #979713",
"K+	c #F9FE05",
"L+	c #BBBF07",
"M+	c #E60E04",
"N+	c #EC0D06",
"O+	c #84000A",
"P+	c #DAE103",
"Q+	c #FFFF01",
"R+	c #FBFF0C",
"S+	c #B5B509",
"T+	c #B6150C",
"U+	c #E90C04",
"V+	c #EF0B04",
"W+	c #7A3A07",
"X+	c #EFFC05",
"Y+	c #F9FE03",
"Z+	c #FAFD03",
"`+	c #F9FD04",
" @	c #F8FF0E",
".@	c #866F0F",
"+@	c #AF0C09",
"@@	c #E60F07",
"#@	c #9F120B",
"$@	c #99120B",
"%@	c #E80E02",
"&@	c #AB070C",
"*@	c #76720F",
"=@	c #F8FD05",
"-@	c #F7FD04",
";@	c #BABF05",
">@	c #EE0F04",
",@	c #850004",
"'@	c #878F13",
")@	c #A2AC05",
"!@	c #9CA809",
"~@	c #989E08",
"{@	c #87230F",
"]@	c #D90F05",
"^@	c #D00904",
"/@	c #616F0C",
"(@	c #FBFE03",
"_@	c #FBFF0E",
":@	c #6A650D",
"<@	c #B20A0C",
"[@	c #EF0E09",
"}@	c #950C0A",
"|@	c #AA110F",
"1@	c #E20F05",
"2@	c #A90C0A",
"3@	c #928D14",
"4@	c #F8FE0C",
"5@	c #F6FC04",
"6@	c #A60404",
"7@	c #A60205",
"8@	c #A50305",
"9@	c #C10107",
"0@	c #DF0C04",
"a@	c #E80B0A",
"b@	c #540806",
"c@	c #E3E70D",
"d@	c #FCFF01",
"e@	c #F2F707",
"f@	c #7C7213",
"g@	c #BC0B0C",
"h@	c #E50E09",
"i@	c #8E0D07",
"j@	c #B30D0F",
"k@	c #E21102",
"l@	c #960710",
"m@	c #96960F",
"n@	c #FEFF0B",
"o@	c #F9FC01",
"p@	c #E51003",
"q@	c #E21003",
"r@	c #EA0D04",
"s@	c #E90D04",
"t@	c #E61203",
"u@	c #E70D05",
"v@	c #EB1006",
"w@	c #E10903",
"x@	c #931011",
"y@	c #B9B110",
"z@	c #FFFF0E",
"A@	c #FBFE07",
"B@	c #FBFF0B",
"C@	c #8D7E11",
"D@	c #A90A0A",
"E@	c #E31007",
"F@	c #A00E06",
"G@	c #9C0E0A",
"H@	c #EA0E0A",
"I@	c #A00D0C",
"J@	c #86941B",
"K@	c #FEFF06",
"L@	c #BABE05",
"M@	c #E60F04",
"N@	c #D90504",
"O@	c #CE0A03",
"P@	c #CE0903",
"Q@	c #D30501",
"R@	c #BC0009",
"S@	c #990005",
"T@	c #7C2910",
"U@	c #AEA80C",
"V@	c #F8FC0B",
"W@	c #F6FD05",
"X@	c #F7FE05",
"Y@	c #FDFF0D",
"Z@	c #726713",
"`@	c #A80C07",
" #	c #EF0E07",
".#	c #960C0A",
"+#	c #B10E09",
"@#	c #E40905",
"##	c #A11206",
"$#	c #9B9A12",
"%#	c #F5FD08",
"&#	c #E70E04",
"*#	c #ED1204",
"=#	c #930204",
"-#	c #4A3F07",
";#	c #55490A",
">#	c #544809",
",#	c #564B09",
"'#	c #8D8C08",
")#	c #BAC806",
"!#	c #F1F611",
"~#	c #F7FD03",
"{#	c #F8FD02",
"]#	c #FBFF0A",
"^#	c #F3F704",
"/#	c #80780D",
"(#	c #B50D06",
"_#	c #E7120B",
":#	c #990F0A",
"<#	c #B21307",
"[#	c #E50D0B",
"}#	c #8C0E0E",
"|#	c #9F9910",
"1#	c #FBFF06",
"2#	c #A90C04",
"3#	c #E20E04",
"4#	c #EE0D06",
"5#	c #800009",
"6#	c #DBEA0C",
"7#	c #FBFF04",
"8#	c #F8FD0C",
"9#	c #8F7F14",
"0#	c #A60C07",
"a#	c #EC0E0A",
"b#	c #A50F07",
"c#	c #9D0D0A",
"d#	c #E30C06",
"e#	c #9C0C05",
"f#	c #78800B",
"g#	c #F7FC03",
"h#	c #E50E04",
"i#	c #ED1006",
"j#	c #7E0007",
"k#	c #D5DB04",
"l#	c #F4FB0D",
"m#	c #716F11",
"n#	c #B50C0D",
"o#	c #E70E09",
"p#	c #850D0A",
"q#	c #AE0F0C",
"r#	c #E51513",
"s#	c #A10F07",
"t#	c #9B9513",
"u#	c #F5FC07",
"v#	c #BCBF04",
"w#	c #F3F906",
"x#	c #867910",
"y#	c #C7060A",
"z#	c #9C0E08",
"A#	c #2F140D",
"B#	c #A71109",
"C#	c #EF0B09",
"D#	c #8B0B0A",
"E#	c #97950E",
"F#	c #FAFF06",
"G#	c #FBFE01",
"H#	c #FCFF07",
"I#	c #BCBF06",
"J#	c #A50E09",
"K#	c #ED1004",
"L#	c #7C0005",
"M#	c #D5DB03",
"N#	c #FAFD02",
"O#	c #FBFF05",
"P#	c #F7FF04",
"Q#	c #938219",
"R#	c #A30E0A",
"S#	c #EB0F06",
"T#	c #990F0B",
"U#	c #A0130A",
"V#	c #9C0F12",
"W#	c #8C8A0B",
"X#	c #FFFF0B",
"Y#	c #FBFA01",
"Z#	c #C3C00B",
"`#	c #BC1104",
" $	c #870001",
".$	c #D6E61D",
"+$	c #FEFF00",
"@$	c #FBFF01",
"#$	c #FCFE0B",
"$$	c #F7FA07",
"%$	c #F3FB06",
"&$	c #68650C",
"*$	c #B00B0B",
"=$	c #F50F07",
"-$	c #7C0D09",
";$	c #2E0D14",
">$	c #B70D09",
",$	c #E71001",
"'$	c #850D14",
")$	c #A9A310",
"!$	c #D4D40A",
"~$	c #D8D612",
"{$	c #9E8A09",
"]$	c #D00D06",
"^$	c #E30D08",
"/$	c #E01003",
"($	c #D40A03",
"_$	c #6E4008",
":$	c #D8D711",
"<$	c #D0D10A",
"[$	c #D2D704",
"}$	c #FBFE09",
"|$	c #F0F808",
"1$	c #8D8315",
"2$	c #B60C0C",
"3$	c #E51104",
"4$	c #A30D0C",
"5$	c #3F1710",
"6$	c #A70E09",
"7$	c #ED0E09",
"8$	c #981417",
"9$	c #940E10",
"0$	c #980406",
"a$	c #BC0508",
"b$	c #EA0D05",
"c$	c #C50806",
"d$	c #940807",
"e$	c #8D0505",
"f$	c #631D04",
"g$	c #E4EF0B",
"h$	c #FBFF09",
"i$	c #837E15",
"j$	c #A60E0C",
"k$	c #F71007",
"l$	c #9A0F0B",
"m$	c #B61B12",
"n$	c #ED1817",
"o$	c #E51310",
"p$	c #E40E02",
"q$	c #E80E04",
"r$	c #E31004",
"s$	c #E30F06",
"t$	c #EF0D05",
"u$	c #842004",
"v$	c #E0EF17",
"w$	c #61610F",
"x$	c #B9110B",
"y$	c #ED0B05",
"z$	c #771608",
"A$	c #401015",
"B$	c #BC2021",
"C$	c #DF150E",
"D$	c #DF1C13",
"E$	c #CA0F09",
"F$	c #CC0D04",
"G$	c #CE1103",
"H$	c #CE0C04",
"I$	c #CE0F09",
"J$	c #CE0D03",
"K$	c #CD0B08",
"L$	c #D80F04",
"M$	c #7E1D08",
"N$	c #756F0F",
"O$	c #B4130B",
"P$	c #E10D04",
"Q$	c #9D0D0B",
"R$	c #4A1713",
"S$	c #C21E21",
"T$	c #E41713",
"U$	c #A11114",
"V$	c #583313",
"W$	c #A8910B",
"X$	c #A28504",
"Y$	c #A28802",
"Z$	c #A08705",
"`$	c #A38907",
" %	c #A08C0A",
".%	c #301110",
"+%	c #A10B0B",
"@%	c #EE0E0A",
"#%	c #A00E0A",
"$%	c #321910",
"%%	c #C51212",
"&%	c #E10F04",
"*%	c #890D08",
"=%	c #959C14",
"-%	c #FFFF05",
";%	c #F9FB11",
">%	c #F4FC03",
",%	c #F5FD0B",
"'%	c #6E6411",
")%	c #B30F0B",
"!%	c #EA0E02",
"~%	c #940D0B",
"{%	c #351910",
"]%	c #CB100F",
"^%	c #F41008",
"/%	c #7F070C",
"(%	c #A6A50E",
"_%	c #F5F904",
":%	c #90810C",
"<%	c #ED0D04",
"[%	c #A10E09",
"}%	c #C31009",
"|%	c #E90F06",
"1%	c #8D170B",
"2%	c #A5A817",
"3%	c #837916",
"4%	c #A00B0A",
"5%	c #AD0D0A",
"6%	c #35160A",
"7%	c #C80B09",
"8%	c #E50F0A",
"9%	c #81140D",
"0%	c #A51209",
"a%	c #9D120B",
"b%	c #2E130D",
"c%	c #C40F0B",
"d%	c #EA0D08",
"e%	c #E31104",
"f%	c #A60F09",
"g%	c #C80E08",
"h%	c #AF0E0C",
"i%	c #37120C",
"                                                                                                ",
"                . + @ # $ $ $ @ % # & * = & - ; > , & @ ' @ > ) ! $ ) # = = ~ {                 ",
"              ] ^ / ( _ : < : [ } | 1 2 3 3 4 3 5 6 7 3 3 8 9 0 a b c d e f g h i               ",
"            j k l m n o p q r s t u v v v v w x v v v v y z A B C p D p E F G H I J             ",
"          K L M N O P Q R R S T U V W X Y v Z `  ...+.@.#.w $.%.&.*.=.-.R ;.>.,.'.).!.          ",
"        ~.{.].^./.(._.:._._._.<.[.}.|.1.2 2.@.3.4.5.6.7.8.v 2.9.0.a.b.c.d.c.e.f.g.h.i.j.        ",
"      k.l.m.n.o.p.q.:.:.:.:.:.r.s.t.u.v.w.x.y.z.A.B.C.D.E.F.| {.G.H.I.J.:.K.:.L.M.N.O.P.Q.      ",
"    R.S.T.U.V.e.:.:.:.:.K.:.W.K.X.Y.Z.`. +.+++@+#+$+$+%+&+*+=+-+;+>+,+W.:.:.:.q.$+'+)+!+~+{+    ",
"  ]+^+/+(+_+:+:.:.:.:.:.:.W.:.:.<+:.[+}+|+1+2+3+4+5+6+7+8+9+0+v a+b+c+e.:.:.:.:.d+e+f+g+h+i+j+  ",
"  k+l+m+n+o+_.K.:.p+:.:.:.W.:.p+:.:.[+q+|+r+: s+4+5+t+u+v+w+x+v =+y+z+e.:.:.p+:.:.A+B+C+D+E+F+  ",
"    G+H+I+J+Z.K+<+:.:.W.W.:.:.:.:.:.[+L+|+M+N+O+P+Q+%+R+S+T+U+l+V+W+X+_.K.Y+:.Z+`+ @.@+@@@#@    ",
"      $@%@&@*@=@q.:.K.:.J.:.-@:.:.:.e.;@|+M+>@,@'@)@!@~@{@]@| {.^@/@%+p+:.:.:.(@_@:@<@[@}@      ",
"        |@1@2@3@4@5@:.:.:.K.:.:.K.:.e.;@|+M+@.3.6@7@8@9@0@2.v a@b@c@d@:.:.Z+:.e@f@g@h@i@        ",
"          j@k@l@m@n@o@:.:.Y+:.:.:.:.[+L+|+p@q@X r@s@r@t@u@v@w@x@y@z@q.:.A@`+B@C@D@E@F@          ",
"            G@H@I@J@K@p+:.:.:.:.:.:.e.L@|+M@| N@O@P@O@Q@R@S@T@U@V@W@p+6+X@Y@Z@`@ #.#            ",
"              +#@###$#%#p+W.:.:.:.:.e.;@|+&#*#=#-#;#>#,#'#)#!#[+~#-@{#]#^#/#(#_#:#              ",
"                <#[#}#|#1#c.:.p+:.:.[+L+2#3#4#5#6#Q+$+$+%+$+p.e+:.<+7#8#9#0#a#b#                ",
"                  c#d#e#f#Z.g#:.:.:.e.L@|+h#i#j#k#5+:.:.J.:.:.:.:.e.l#m#n#o#p#                  ",
"                    q#r#s#t#u#:.:.:.e.v#2#6 >@3+4+5+:.:.:.:.:.:.d.w#x#y#M+z#                    ",
"                    A#B#C#D#E#F#G#K.H#I#J#M+K#L#M#5+N#q.J.:.:.O#P#Q#R#S#T#                      ",
"                        U#&#V#W#X#7#Y#Z#`#y 2+ $.$+$@$#$$$q.e.%$&$*$=$-$                        ",
"                        ;$>$,$'$)$!$~${$]$^$/$($_$:$<$[$A+}$|$1$2$3$4$                          ",
"                          5$6$7$8$9$0$a$y v Y b$c$d$e$f$g$h$i$j$k$l$                            ",
"                              m$n$o$p$q${.v v q@r$s$t$u$v$w$x$y$z$                              ",
"                              A$B$C$D$E$F$G$H$I$J$K$L$M$N$O$P$Q$                                ",
"                                R$S$T$U$V$W$X$Y$Z$`$ %.%+%@%#%                                  ",
"                                  $%%%&%*%=%-%;%>%,%'%)%!%~%                                    ",
"                                    {%]%^%/%(%o+_%:%s#<%[%                                      ",
"                                        }%|%1%2%3%4%a#5%                                        ",
"                                        6%7%8%9%0%H@a%                                          ",
"                                          b%c%d%e%f%                                            ",
"                                              g%h%                                              ",
"                                              i%                                                "};
